<?xml version="1.0" standalone="no"?>
<!DOCTYPE svg PUBLIC "-//W3C//DTD SVG 20010904//EN"
 "http://www.w3.org/TR/2001/REC-SVG-20010904/DTD/svg10.dtd">
<svg version="1.0" xmlns="http://www.w3.org/2000/svg"
 width="113.000000pt" height="114.000000pt" viewBox="0 0 113.000000 114.000000"
 preserveAspectRatio="xMidYMid meet">

<g transform="translate(0.000000,114.000000) scale(0.100000,-0.100000)"
fill="#000000" stroke="none">
<path d="M90 1087 c-48 -24 -50 -38 -49 -407 0 -252 3 -351 12 -367 7 -12 32
-35 57 -52 l45 -31 196 0 195 0 23 -65 c20 -55 27 -65 46 -65 15 0 26 -8 30
-21 7 -20 12 -20 194 -17 141 2 192 6 204 17 15 12 17 51 17 370 0 381 -5 427
-49 463 -21 16 -44 18 -241 18 l-218 0 -28 83 -29 82 -190 2 c-138 2 -197 -1
-215 -10z m384 -43 c3 -9 6 -18 6 -20 0 -2 -73 -4 -163 -4 -131 0 -167 -3
-185 -16 -22 -15 -22 -15 -22 -350 0 -303 -5 -368 -24 -318 -3 9 -6 167 -6
352 0 298 2 337 17 354 14 16 34 18 193 18 153 0 179 -2 184 -16z m510 -160
c9 -3 16 -12 16 -20 0 -12 -37 -14 -210 -14 -116 0 -210 2 -210 4 0 2 -3 11
-6 20 -5 14 16 16 194 16 110 0 207 -3 216 -6z"/>
</g>
</svg>
