<svg xmlns="http://www.w3.org/2000/svg"  viewBox="0 0 100 100" width="100px" height="100px"><path fill="#e3e2e3" d="M81,28H51.059l14.25,43.5L53,86h28.21c2.633,0,4.79-2.137,4.79-4.754V33C86,30.239,83.761,28,81,28z"/><polygon fill="#495398" points="48.258,71.5 53,86 65.31,71.5"/><path fill="#6693c1" d="M19,14c-2.761,0-5,2.239-5,5v48c0,2.761,2.239,5,5,5h46.31c0.34,0,0.581-0.332,0.475-0.656L47,14H19 z"/><path fill="#e3e2e3" d="M45.219,40.5H34.5v4h6.849c-0.695,3.423-3.721,6-7.349,6c-4.142,0-7.5-3.358-7.5-7.5 s3.358-7.5,7.5-7.5c1.944,0,3.709,0.746,5.041,1.959l2.828-2.828c-2.058-1.936-4.822-3.13-7.87-3.13c-6.351,0-11.5,5.149-11.5,11.5 S27.649,54.5,34,54.5S45.5,49.351,45.5,43C45.5,42.14,45.398,41.306,45.219,40.5z"/><path fill="#7c8a9e" d="M81.5,48.5v-3h-12v-5h-5l0.015,5.017l-7.722-0.014l0.982,2.999l15.414,0.006 c-0.923,3.253-3.047,6.105-5.038,8.493C66,54.5,65,52.5,65,52.5h-3.5c0,0,1,3,4.5,6.853c-1.609,1.645-3.5,3.127-3.5,3.127 l-0.117,0.088l1.123,3.428l0,0c0.034-0.023,1.53-1.033,4.666-4.226c2.135,2.316,4.891,5.412,8.454,8.731l2.316-2.316 c-3.816-3.463-6.615-6.523-8.671-8.731c2.756-3.261,5.637-7.195,6.229-10.954C76.5,48.5,81.5,48.5,81.5,48.5z"/><g><rect width="19.02" height=".999" x="49.644" y="78.253" fill="#1f212b" transform="rotate(-49.677 59.154 78.753)"/><path fill="#1f212b" d="M81.21,87H53c-0.433,0-0.816-0.278-0.95-0.689L47.696,73H19c-3.309,0-6-2.691-6-6V19 c0-3.309,2.691-6,6-6h28c0.433,0,0.815,0.278,0.95,0.688L52.311,27H81c3.309,0,6,2.691,6,6v48.246C87,84.419,84.402,87,81.21,87z M53.725,85H81.21C83.3,85,85,83.316,85,81.246V33c0-2.206-1.794-4-4-4H51.586c-0.433,0-0.815-0.278-0.95-0.688L46.275,15H19 c-2.206,0-4,1.794-4,4v48c0,2.206,1.794,4,4,4h29.421c0.433,0,0.816,0.278,0.95,0.689L53.725,85z"/><path fill="#1f212b" d="M65.31,72H48c-0.276,0-0.5-0.224-0.5-0.5S47.724,71,48,71h16.62L50.635,28.311 c-0.086-0.262,0.058-0.545,0.32-0.631c0.261-0.085,0.544,0.058,0.631,0.32l14.199,43.345c0.05,0.152,0.023,0.319-0.07,0.448 C65.62,71.923,65.47,72,65.31,72z"/><path fill="#1f212b" d="M34,55c-6.617,0-12-5.383-12-12s5.383-12,12-12c3.057,0,5.973,1.16,8.213,3.266 c0.099,0.093,0.155,0.222,0.157,0.356c0.002,0.136-0.051,0.266-0.146,0.361l-2.829,2.829c-0.189,0.188-0.493,0.196-0.69,0.017 C37.409,36.649,35.738,36,34,36c-3.859,0-7,3.141-7,7s3.141,7,7,7c3.107,0,5.837-2.068,6.71-5H34.5c-0.276,0-0.5-0.224-0.5-0.5v-4 c0-0.276,0.224-0.5,0.5-0.5h10.72c0.234,0,0.438,0.163,0.488,0.392C45.901,41.266,46,42.144,46,43C46,49.617,40.617,55,34,55z M34,32c-6.065,0-11,4.935-11,11s4.935,11,11,11s11-4.935,11-11c0-0.656-0.063-1.328-0.188-2H35v3h6.35 c0.15,0,0.292,0.067,0.387,0.184c0.096,0.116,0.133,0.269,0.104,0.416C41.086,48.309,37.789,51,34,51c-4.411,0-8-3.589-8-8 s3.589-8,8-8c1.829,0,3.593,0.628,5.015,1.778l2.129-2.129C39.146,32.938,36.629,32,34,32z"/><path fill="#1f212b" d="M76.5,82h-15c-0.276,0-0.5-0.224-0.5-0.5s0.224-0.5,0.5-0.5h15c2.481,0,4.5-2.019,4.5-4.5v-2 c0-0.276,0.224-0.5,0.5-0.5s0.5,0.224,0.5,0.5v2C82,79.532,79.532,82,76.5,82z"/><path fill="#1f212b" d="M81.5,40c-0.276,0-0.5-0.224-0.5-0.5v-2c0-2.481-2.019-4.5-4.5-4.5h-6c-0.276,0-0.5-0.224-0.5-0.5 s0.224-0.5,0.5-0.5h6c3.032,0,5.5,2.468,5.5,5.5v2C82,39.776,81.776,40,81.5,40z"/><path fill="#1f212b" d="M40.5,68h-17c-3.032,0-5.5-2.468-5.5-5.5v-2c0-0.276,0.224-0.5,0.5-0.5s0.5,0.224,0.5,0.5v2 c0,2.481,2.019,4.5,4.5,4.5h17c0.276,0,0.5,0.224,0.5,0.5S40.776,68,40.5,68z"/><path fill="#1f212b" d="M18.5,26c-0.276,0-0.5-0.224-0.5-0.5v-2c0-3.032,2.468-5.5,5.5-5.5h20c0.276,0,0.5,0.224,0.5,0.5 S43.776,19,43.5,19h-20c-2.481,0-4.5,2.019-4.5,4.5v2C19,25.776,18.776,26,18.5,26z"/><path fill="#1f212b" d="M55.5,68h-8c-0.276,0-0.5-0.224-0.5-0.5s0.224-0.5,0.5-0.5h8c0.276,0,0.5,0.224,0.5,0.5 S55.776,68,55.5,68z"/><path fill="#1f212b" d="M59.5,68h-1c-0.276,0-0.5-0.224-0.5-0.5s0.224-0.5,0.5-0.5h1c0.276,0,0.5,0.224,0.5,0.5 S59.776,68,59.5,68z"/><path fill="#1f212b" d="M57.5,33h-1c-0.276,0-0.5-0.224-0.5-0.5s0.224-0.5,0.5-0.5h1c0.276,0,0.5,0.224,0.5,0.5 S57.776,33,57.5,33z"/><path fill="#1f212b" d="M65.5,33h-5c-0.276,0-0.5-0.224-0.5-0.5s0.224-0.5,0.5-0.5h5c0.276,0,0.5,0.224,0.5,0.5 S65.776,33,65.5,33z"/><path fill="#1f212b" d="M76.627,71c-0.122,0-0.244-0.045-0.341-0.134c-3.089-2.877-5.573-5.587-7.568-7.764l-0.56-0.608 c-2.955,2.973-4.362,3.909-4.377,3.919c-0.129,0.085-0.292,0.108-0.439,0.054c-0.147-0.051-0.262-0.168-0.311-0.316l-1.123-3.428 c-0.066-0.202,0.004-0.425,0.174-0.554l0.116-0.088c0.011-0.009,1.628-1.28,3.114-2.747c-3.275-3.713-4.246-6.553-4.287-6.676 c-0.051-0.152-0.025-0.32,0.069-0.45C61.188,52.077,61.339,52,61.5,52H65c0.189,0,0.362,0.107,0.447,0.276 c0.009,0.018,0.881,1.739,2.699,3.943c1.692-2.067,3.443-4.494,4.364-7.22H57.775c-0.216,0-0.408-0.139-0.476-0.345l-0.982-3 c-0.05-0.152-0.023-0.319,0.07-0.448C56.482,45.077,56.633,45,56.793,45H64v-4.5c0-0.276,0.224-0.5,0.5-0.5h5 c0.276,0,0.5,0.224,0.5,0.5V45h11.5c0.276,0,0.5,0.224,0.5,0.5v3c0,0.276-0.224,0.5-0.5,0.5h-4.581 c-0.745,3.744-3.52,7.495-5.98,10.437l0.148,0.159c1.968,2.117,4.662,5.016,8.191,8.219c0.102,0.092,0.16,0.222,0.164,0.358 c0.003,0.137-0.05,0.269-0.146,0.365l-2.315,2.315C76.883,70.951,76.755,71,76.627,71z M68.172,61.27c0.003,0,0.005,0,0.008,0 c0.137,0.002,0.267,0.061,0.359,0.161l0.915,0.996c1.907,2.081,4.263,4.65,7.161,7.378l1.604-1.604 c-3.371-3.09-5.957-5.873-7.864-7.925l-0.449-0.482c-0.172-0.186-0.179-0.471-0.016-0.664c2.337-2.764,5.514-6.882,6.116-10.708 C76.044,48.179,76.254,48,76.5,48H81v-2H69.5c-0.276,0-0.5-0.224-0.5-0.5V41h-4v4.5c0,0.276-0.224,0.5-0.5,0.5h-7.018l0.655,2 h15.052c0.157,0,0.305,0.073,0.399,0.198s0.124,0.287,0.082,0.438c-0.959,3.374-3.135,6.283-5.137,8.684 c-0.094,0.113-0.233,0.179-0.38,0.18c-0.001,0-0.003,0-0.004,0c-0.146,0-0.284-0.063-0.379-0.174 c-1.727-2.007-2.719-3.686-3.072-4.326h-2.452c0.487,1.07,1.691,3.34,4.123,6.017c0.178,0.195,0.173,0.496-0.013,0.686 c-1.36,1.391-2.895,2.647-3.389,3.044l0.796,2.429c0.679-0.54,2.015-1.682,4.051-3.756C67.909,61.323,68.038,61.27,68.172,61.27z"/></g></svg>