<svg xmlns="http://www.w3.org/2000/svg"  viewBox="0 0 48 48" width="48px" height="48px"><path fill="#d6e5e5" d="M44.834,17.435c0.404-1.54,0.924-3.401-0.183-4.545c-0.948-0.98-2.531-0.807-3.88-0.614 c-5.294,0.76-10.704,1.082-15.983,0.224l1.69,32.788c1.932-0.166,3.872-0.559,5.804-0.725c1.798-0.154,3.627-0.307,5.391,0.072 c0.964,0.207,1.9,0.572,2.883,0.643s2.078-0.226,2.614-1.053c0.306-0.472,0.39-1.05,0.462-1.608 c0.677-5.248,0.904-11.554,0.679-16.84c-0.061-1.437-0.156-2.876-0.09-4.313C44.283,20.104,44.489,18.751,44.834,17.435z"/><polygon fill="#1e4384" points="22.37,36.978 26.478,45.065 32.491,36.536"/><path fill="#4b7bb2" d="M33.094,36.409c-2.425-3.605-3.55-7.902-4.724-12.085c-1.923-6.851-4.213-13.801-6.82-20.422 c-4.882-0.57-10.299-1.245-15.104-0.208C5.28,3.947,4.018,4.375,3.434,5.417C3.123,5.97,3.052,6.623,3,7.256 c-0.649,7.911,0.965,15.844,1.068,23.781c0.02,1.548,0.051,3.254,1.087,4.404c1.055,1.171,2.791,1.364,4.362,1.48 c3.919,0.289,7.859,0.579,11.771,0.218c1.457-0.135,2.905-0.359,4.36-0.512c2.493-0.264,5.009-0.32,7.511-0.168L33.094,36.409z"/><path fill="#010101" d="M17.373,37.807c-2.655,0-5.303-0.196-7.893-0.387c-1.743-0.128-3.541-0.361-4.697-1.643 c-1.172-1.302-1.195-3.204-1.215-4.732c-0.041-3.162-0.328-6.385-0.606-9.502c-0.419-4.692-0.853-9.543-0.46-14.327 c0.06-0.717,0.143-1.413,0.495-2.043c0.704-1.254,2.156-1.709,3.344-1.966c4.764-1.029,10.148-0.399,14.896,0.157l0.372,0.043 c0.184,0.021,0.34,0.142,0.407,0.313c2.521,6.404,4.821,13.291,6.836,20.469l0.184,0.656c1.084,3.874,2.204,7.878,4.428,11.215 c0.128,0.098,0.207,0.255,0.196,0.429c-0.017,0.275-0.234,0.487-0.529,0.469c-2.472-0.15-4.97-0.093-7.428,0.166 c-0.637,0.067-1.271,0.148-1.906,0.229c-0.819,0.104-1.639,0.208-2.461,0.284C20.017,37.758,18.693,37.807,17.373,37.807z M12.111,3.657c-1.906,0-3.784,0.144-5.56,0.526C5.57,4.396,4.378,4.755,3.87,5.661C3.614,6.117,3.551,6.672,3.498,7.298 c-0.385,4.697,0.045,9.505,0.46,14.155c0.279,3.136,0.569,6.378,0.61,9.578c0.018,1.432,0.038,3.054,0.958,4.076 c0.908,1.008,2.424,1.197,4.028,1.315c3.838,0.283,7.805,0.577,11.688,0.218c0.811-0.075,1.619-0.177,2.427-0.28 c0.642-0.082,1.283-0.163,1.927-0.231c2.181-0.23,4.391-0.306,6.584-0.22c-2.014-3.31-3.077-7.11-4.108-10.795l-0.184-0.655 c-1.977-7.042-4.229-13.802-6.693-20.095L21.12,4.356C18.251,4.021,15.146,3.657,12.111,3.657z"/><path fill="#010101" d="M26.479,45.788c-0.195,0-0.374-0.114-0.455-0.294c-0.088-0.193-0.044-0.42,0.109-0.567 c0.934-0.896,1.819-2.53,2.601-3.972c0.324-0.597,0.63-1.162,0.918-1.636c0.65-1.071,1.506-1.771,2.412-2.512 c0.229-0.187,0.465-0.38,0.707-0.586c0.209-0.179,0.523-0.154,0.705,0.056c0.179,0.21,0.153,0.526-0.057,0.705 c-0.247,0.211-0.488,0.408-0.722,0.6c-0.875,0.715-1.63,1.333-2.19,2.257c-0.28,0.462-0.579,1.013-0.894,1.594 c-0.587,1.083-1.23,2.27-1.935,3.224c0.547-0.069,1.094-0.147,1.63-0.225c0.959-0.139,1.95-0.282,2.931-0.366 c1.813-0.156,3.688-0.315,5.539,0.082c0.347,0.074,0.69,0.168,1.034,0.263c0.612,0.168,1.19,0.327,1.78,0.37 c0.749,0.049,1.71-0.135,2.158-0.827c0.237-0.366,0.313-0.831,0.386-1.4c0.654-5.071,0.906-11.334,0.675-16.754l-0.033-0.737 c-0.055-1.183-0.112-2.406-0.057-3.62c0.063-1.393,0.275-2.783,0.629-4.132l0.025-0.097c0.377-1.433,0.804-3.056-0.084-3.974 c-0.752-0.779-2.116-0.658-3.449-0.466c-6.342,0.911-11.469,0.98-16.134,0.223c-0.272-0.044-0.458-0.301-0.413-0.574 c0.043-0.273,0.307-0.458,0.573-0.414c4.565,0.742,9.596,0.67,15.831-0.226c1.25-0.18,3.14-0.451,4.311,0.761 c1.279,1.323,0.754,3.319,0.332,4.923c-0.36,1.377-0.562,2.698-0.623,4.021c-0.053,1.167,0.003,2.367,0.058,3.527l0.034,0.741 c0.233,5.474-0.022,11.801-0.683,16.926c-0.071,0.548-0.159,1.23-0.538,1.815c-0.687,1.059-2.036,1.357-3.07,1.281 c-0.688-0.049-1.341-0.229-1.973-0.402c-0.325-0.089-0.651-0.179-0.979-0.25c-1.708-0.366-3.505-0.213-5.243-0.063 c-0.952,0.082-1.929,0.223-2.873,0.359c-0.959,0.139-1.95,0.282-2.931,0.366C26.507,45.787,26.492,45.788,26.479,45.788z"/><path fill="#010101" d="M26.479,45.788c-0.15,0-0.3-0.068-0.397-0.197c-0.95-1.247-1.885-3.319-2.636-4.985 c-0.224-0.496-0.433-0.961-0.625-1.366c-0.083-0.175-0.157-0.345-0.229-0.509c-0.228-0.525-0.408-0.939-0.8-1.306 c-0.202-0.188-0.213-0.505-0.024-0.707c0.189-0.202,0.507-0.212,0.706-0.024c0.545,0.508,0.783,1.057,1.035,1.639 c0.067,0.154,0.137,0.314,0.214,0.478c0.195,0.41,0.408,0.882,0.635,1.384c0.729,1.619,1.639,3.634,2.519,4.79 c0.168,0.22,0.125,0.534-0.095,0.701C26.691,45.754,26.585,45.788,26.479,45.788z"/><path fill="#d6e5e5" d="M14.509,26.325c-1.416,0-2.659-0.415-3.649-1.229c-1.2-0.986-2.044-2.842-2.052-4.513 c-0.016-3.252,2.416-5.984,4.608-6.402c1.859-0.352,3.677,0.553,4.873,1.375c0.228,0.157,0.285,0.468,0.129,0.695 c-0.156,0.229-0.468,0.286-0.695,0.129c-1.039-0.715-2.6-1.502-4.119-1.217c-1.803,0.344-3.809,2.732-3.796,5.415 c0.007,1.373,0.716,2.948,1.687,3.746c1.117,0.917,2.593,1.209,4.381,0.864c2.313-0.445,3.793-2.896,3.652-3.953 c-0.014-0.1-0.055-0.402-0.143-0.464c-0.053-0.037-0.208-0.051-0.311-0.06c-1.122-0.097-2.267-0.171-3.401-0.219 c-0.275-0.012-0.489-0.245-0.479-0.521c0.012-0.276,0.197-0.506,0.521-0.479c1.148,0.048,2.308,0.123,3.445,0.222 c0.21,0.019,0.525,0.046,0.799,0.238c0.446,0.314,0.519,0.857,0.558,1.149c0.218,1.621-1.691,4.536-4.453,5.068 C15.526,26.273,15.007,26.325,14.509,26.325z"/><path fill="#010101" d="M33.882,23.003c-2.125,0-4.241-0.135-6.347-0.406c-0.274-0.035-0.141-1.025,0.127-0.992 c4.575,0.588,9.202,0.524,13.756-0.186c0.644-0.097,0.89,0.208,0.98,0.401c0.116,0.243,0.056,0.529-0.15,0.711 c-0.189,0.168-0.519,0.252-0.776,0.088c-0.063-0.039-0.115-0.098-0.155-0.166C38.83,22.821,36.35,23.003,33.882,23.003z"/><path fill="#010101" d="M33.598,22.454c-0.243,0-0.456-0.177-0.493-0.425c-0.14-0.922-0.225-1.866-0.253-2.807 c-0.008-0.276,0.209-0.506,0.485-0.515c0.263,0,0.506,0.209,0.515,0.485c0.026,0.9,0.107,1.804,0.241,2.687 c0.042,0.273-0.146,0.528-0.419,0.569C33.648,22.452,33.623,22.454,33.598,22.454z"/><path fill="#010101" d="M31.753,33.069c-0.132,0-0.264-0.052-0.362-0.155c-0.19-0.2-0.183-0.516,0.018-0.707l1.833-1.747 c0.404-0.385,0.808-0.769,1.185-1.179c1.683-1.827,2.809-4.186,3.174-6.644c0.04-0.273,0.3-0.459,0.567-0.421 c0.273,0.041,0.462,0.295,0.421,0.568c-0.393,2.654-1.609,5.202-3.426,7.175c-0.393,0.426-0.812,0.826-1.231,1.226l-1.833,1.747 C32.001,33.023,31.877,33.069,31.753,33.069z"/><path fill="#010101" d="M40.326,34.337c-0.076,0-0.153-0.017-0.226-0.054c-3.667-1.858-6.848-4.823-8.957-8.348 c-0.143-0.237-0.065-0.544,0.172-0.686c0.233-0.141,0.543-0.065,0.686,0.172c2.015,3.365,5.051,6.196,8.551,7.97 c0.247,0.125,0.346,0.425,0.221,0.672C40.684,34.237,40.508,34.337,40.326,34.337z"/></svg>